<?xml version="1.0" encoding="utf-8"?>
<!-- Generator: Adobe Illustrator 27.3.1, SVG Export Plug-In . SVG Version: 6.00 Build 0)  -->
<svg version="1.1" id="Layer_1" xmlns="http://www.w3.org/2000/svg" xmlns:xlink="http://www.w3.org/1999/xlink" x="0px" y="0px"
	 viewBox="0 0 367.29 177.32" style="enable-background:new 0 0 367.29 177.32;" xml:space="preserve">
<style type="text/css">
	.st0{fill:#002840;}
	.st1{fill:#42B988;}
</style>
<g>
	<path class="st0" d="M76.02,57.43c0-0.54,0-0.96,0-1.37c0-6.41-0.01-12.81,0-19.22c0.03-12.97,10.39-23.8,23.35-24.44
		c0.49-0.02,0.98,0,1.54,0c0,20.32,0,40.48,0,60.64C95.48,63.34,87.35,57.99,76.02,57.43z"/>
</g>
<path id="bottom_white_2_" class="st0" d="M16.11,134.71c0-20.41,0-40.61,0-61.11c5.35,10.12,13.5,15.38,24.77,15.98
	c0.02,0.51,0.07,1.04,0.07,1.57c-0.03,6.74-0.02,13.48-0.1,20.22c-0.12,9.43-7.26,18.81-16.66,21.93c-1.34,0.45-2.74,0.77-4.13,1.01
	C18.79,134.53,17.5,134.58,16.11,134.71z"/>
<path class="st1" d="M76.81,86.14c-0.75,0-1.28,0-1.81,0c-11.69,0-23.38,0-35.07,0c-11.46,0-21.4-7.59-24.09-18.7
	c-0.74-3.05-0.91-6.29-0.96-9.45c-0.12-7.16-0.19-14.33,0.06-21.49c0.33-9.52,7.26-18.47,16.32-21.53c2.7-0.92,5.46-1.5,8.43-1.33
	c0,15.84,0,31.61,0,47.5c0.53,0.03,0.97,0.07,1.42,0.07c11.9,0,23.8,0.02,35.7,0c11.28-0.02,21.55,8.05,23.89,19.09
	c0.69,3.24,0.89,6.62,0.97,9.95c0.15,6.07,0.05,12.15,0.04,18.23c-0.01,12.33-8.06,22.34-20.04,24.85
	c-1.54,0.32-3.14,0.38-4.86,0.57C76.81,117.94,76.81,102.17,76.81,86.14z"/>
<g>
	<g>
		<g>
			<path class="st0" d="M125.15,81.91c-1.86,0-3.43-0.6-4.71-1.8c-1.28-1.2-1.92-2.78-1.92-4.75c0-1.97,0.64-3.55,1.92-4.75
				c1.28-1.2,2.85-1.8,4.71-1.8c1.91,0,3.49,0.6,4.75,1.8c1.26,1.2,1.88,2.78,1.88,4.75c0,1.97-0.63,3.55-1.88,4.75
				C128.64,81.31,127.06,81.91,125.15,81.91z M119.99,127.28V86.66h10.32v40.62H119.99z"/>
			<path class="st0" d="M141.78,127.28V86.66h10.16v4.59h1.47c0.6-1.64,1.6-2.84,2.99-3.6c1.39-0.76,3.02-1.15,4.87-1.15h4.91v9.17
				h-5.08c-2.62,0-4.78,0.7-6.47,2.09c-1.69,1.39-2.54,3.54-2.54,6.43v23.1H141.78z"/>
			<path class="st0" d="M174.21,127.28V69.95h10.32v31.7H186l13.43-14.99h13.43l-18.75,19.66l19.41,20.97h-13.27L186,111.15h-1.47
				v16.13H174.21z"/>
			<path class="st0" d="M233.01,128.43c-2.89,0-5.49-0.51-7.78-1.52c-2.29-1.01-4.11-2.48-5.45-4.42c-1.34-1.94-2.01-4.3-2.01-7.08
				s0.67-5.12,2.01-7c1.34-1.88,3.19-3.3,5.57-4.26c2.38-0.96,5.09-1.43,8.15-1.43h11.14v-2.29c0-1.91-0.6-3.48-1.8-4.71
				c-1.2-1.23-3.11-1.84-5.73-1.84c-2.57,0-4.48,0.59-5.73,1.76c-1.26,1.17-2.08,2.69-2.46,4.55l-9.5-3.19
				c0.66-2.07,1.71-3.97,3.15-5.69c1.45-1.72,3.38-3.11,5.82-4.18c2.43-1.06,5.39-1.6,8.89-1.6c5.35,0,9.58,1.34,12.69,4.01
				c3.11,2.68,4.67,6.55,4.67,11.63v15.15c0,1.64,0.76,2.46,2.29,2.46h3.28v8.52h-6.88c-2.02,0-3.69-0.49-5-1.47
				s-1.97-2.29-1.97-3.93v-0.08h-1.56c-0.22,0.66-0.71,1.52-1.47,2.58c-0.76,1.06-1.97,2.01-3.6,2.83
				C238.09,128.02,235.85,128.43,233.01,128.43z M234.81,120.08c2.89,0,5.25-0.81,7.08-2.42c1.83-1.61,2.74-3.75,2.74-6.43v-0.82
				h-10.4c-1.91,0-3.41,0.41-4.5,1.23c-1.09,0.82-1.64,1.97-1.64,3.44s0.57,2.68,1.72,3.6
				C230.96,119.61,232.63,120.08,234.81,120.08z"/>
			<path class="st0" d="M280.35,128.43c-2.89,0-5.49-0.51-7.78-1.52c-2.29-1.01-4.11-2.48-5.45-4.42c-1.34-1.94-2.01-4.3-2.01-7.08
				s0.67-5.12,2.01-7c1.34-1.88,3.19-3.3,5.57-4.26c2.38-0.96,5.09-1.43,8.15-1.43h11.14v-2.29c0-1.91-0.6-3.48-1.8-4.71
				c-1.2-1.23-3.11-1.84-5.73-1.84c-2.57,0-4.48,0.59-5.73,1.76c-1.26,1.17-2.08,2.69-2.46,4.55l-9.5-3.19
				c0.66-2.07,1.71-3.97,3.15-5.69c1.45-1.72,3.38-3.11,5.82-4.18c2.43-1.06,5.39-1.6,8.89-1.6c5.35,0,9.58,1.34,12.69,4.01
				c3.11,2.68,4.67,6.55,4.67,11.63v15.15c0,1.64,0.76,2.46,2.29,2.46h3.28v8.52h-6.88c-2.02,0-3.69-0.49-5-1.47
				s-1.97-2.29-1.97-3.93v-0.08h-1.56c-0.22,0.66-0.71,1.52-1.47,2.58c-0.76,1.06-1.97,2.01-3.6,2.83
				C285.43,128.02,283.19,128.43,280.35,128.43z M282.15,120.08c2.89,0,5.25-0.81,7.08-2.42c1.83-1.61,2.74-3.75,2.74-6.43v-0.82
				h-10.4c-1.91,0-3.41,0.41-4.5,1.23c-1.09,0.82-1.64,1.97-1.64,3.44s0.57,2.68,1.72,3.6C278.3,119.61,279.97,120.08,282.15,120.08
				z"/>
			<path class="st0" d="M339.48,128.43c-3.66,0-6.47-0.63-8.44-1.88c-1.97-1.26-3.41-2.65-4.34-4.18h-1.47v4.91h-10.16V69.95h10.32
				v21.38h1.47c0.6-0.98,1.41-1.91,2.42-2.78c1.01-0.87,2.35-1.6,4.01-2.17c1.67-0.57,3.73-0.86,6.18-0.86
				c3.28,0,6.31,0.81,9.09,2.42c2.78,1.61,5.02,3.97,6.72,7.08c1.69,3.11,2.54,6.88,2.54,11.3v1.31c0,4.42-0.85,8.19-2.54,11.3
				c-1.69,3.11-3.93,5.47-6.72,7.08C345.79,127.62,342.76,128.43,339.48,128.43z M336.37,119.42c3.17,0,5.81-1.02,7.94-3.07
				c2.13-2.05,3.19-5.04,3.19-8.97v-0.82c0-3.93-1.05-6.92-3.15-8.97c-2.1-2.05-4.76-3.07-7.99-3.07c-3.17,0-5.82,1.02-7.94,3.07
				c-2.13,2.05-3.19,5.04-3.19,8.97v0.82c0,3.93,1.06,6.92,3.19,8.97C330.56,118.4,333.2,119.42,336.37,119.42z"/>
		</g>
	</g>
</g>
<g>
	<g>
		<g>
			<path class="st1" d="M245.12,156.86V144.6h1.93v1.5h0.35c0.22-0.53,0.55-0.93,1-1.18s1.04-0.38,1.78-0.38h1.45v1.8h-1.58
				c-0.89,0-1.6,0.25-2.14,0.74c-0.54,0.49-0.81,1.26-0.81,2.29v7.47H245.12z"/>
			<path class="st1" d="M260.19,157.21c-1.24,0-2.32-0.26-3.26-0.79c-0.94-0.53-1.66-1.27-2.18-2.22c-0.52-0.95-0.78-2.06-0.78-3.31
				v-0.3c0-1.27,0.26-2.38,0.78-3.33c0.52-0.95,1.24-1.69,2.16-2.22s1.97-0.79,3.16-0.79c1.15,0,2.17,0.25,3.06,0.74
				c0.89,0.49,1.58,1.2,2.08,2.12c0.5,0.92,0.75,2,0.75,3.23v0.9h-10c0.05,1.32,0.48,2.35,1.28,3.1c0.8,0.74,1.8,1.12,3.01,1.12
				c1.05,0,1.86-0.24,2.43-0.73c0.57-0.48,1-1.06,1.3-1.73l1.71,0.83c-0.25,0.52-0.6,1.04-1.04,1.55c-0.44,0.52-1.02,0.95-1.73,1.3
				C262.2,157.03,261.29,157.21,260.19,157.21z M255.98,149.61h7.97c-0.07-1.14-0.46-2.02-1.17-2.66c-0.71-0.64-1.62-0.95-2.72-0.95
				c-1.12,0-2.04,0.32-2.76,0.95S256.14,148.48,255.98,149.61z"/>
			<path class="st1" d="M274.35,157.21c-1.52,0-2.8-0.35-3.85-1.05c-1.04-0.7-1.68-1.81-1.89-3.33l1.88-0.43
				c0.13,0.8,0.38,1.43,0.75,1.89c0.37,0.46,0.82,0.79,1.37,0.98c0.54,0.19,1.12,0.29,1.74,0.29c0.92,0,1.65-0.18,2.18-0.55
				s0.8-0.86,0.8-1.48c0-0.63-0.25-1.08-0.76-1.34s-1.21-0.47-2.09-0.64l-1.03-0.18c-0.79-0.13-1.5-0.34-2.16-0.63
				c-0.65-0.28-1.17-0.67-1.55-1.15c-0.38-0.48-0.58-1.09-0.58-1.83c0-1.1,0.43-1.96,1.28-2.58c0.85-0.62,1.98-0.93,3.38-0.93
				c1.39,0,2.51,0.31,3.37,0.94c0.86,0.63,1.42,1.51,1.67,2.65l-1.86,0.48c-0.15-0.89-0.51-1.51-1.08-1.87
				c-0.57-0.36-1.27-0.54-2.11-0.54c-0.84,0-1.5,0.15-1.98,0.46c-0.49,0.31-0.73,0.76-0.73,1.37c0,0.59,0.23,1.02,0.69,1.29
				c0.46,0.28,1.07,0.48,1.84,0.61l1.03,0.18c0.87,0.15,1.65,0.35,2.34,0.61s1.25,0.63,1.65,1.12c0.41,0.49,0.61,1.12,0.61,1.91
				c0,1.2-0.45,2.13-1.34,2.78C277.06,156.88,275.86,157.21,274.35,157.21z"/>
			<path class="st1" d="M288.29,157.21c-1.24,0-2.33-0.26-3.27-0.78c-0.94-0.52-1.68-1.25-2.21-2.19s-0.79-2.06-0.79-3.35v-0.33
				c0-1.27,0.26-2.38,0.79-3.33s1.26-1.69,2.21-2.21c0.94-0.52,2.04-0.78,3.27-0.78c1.24,0,2.33,0.26,3.27,0.78
				c0.94,0.52,1.68,1.25,2.21,2.21s0.79,2.06,0.79,3.33v0.33c0,1.29-0.26,2.4-0.79,3.35s-1.26,1.68-2.21,2.19
				C290.62,156.95,289.53,157.21,288.29,157.21z M288.29,155.43c1.3,0,2.34-0.41,3.12-1.24c0.78-0.83,1.17-1.94,1.17-3.35v-0.23
				c0-1.4-0.39-2.52-1.17-3.35c-0.78-0.83-1.82-1.24-3.12-1.24c-1.29,0-2.32,0.41-3.11,1.24c-0.79,0.83-1.18,1.94-1.18,3.35v0.23
				c0,1.4,0.39,2.52,1.18,3.35S287,155.43,288.29,155.43z"/>
			<path class="st1" d="M302.81,157.08c-0.89,0-1.7-0.19-2.44-0.58c-0.74-0.38-1.33-0.96-1.75-1.72c-0.43-0.76-0.64-1.68-0.64-2.77
				v-7.42h1.98v7.27c0,1.22,0.3,2.11,0.92,2.66c0.61,0.55,1.43,0.83,2.47,0.83c1.17,0,2.13-0.38,2.88-1.15
				c0.75-0.77,1.13-1.91,1.13-3.43v-6.17h1.98v12.26h-1.93v-2.08h-0.35c-0.27,0.58-0.73,1.12-1.38,1.59
				C305.01,156.84,304.06,157.08,302.81,157.08z"/>
			<path class="st1" d="M313.46,156.86V144.6h1.93v1.5h0.35c0.22-0.53,0.55-0.93,1-1.18s1.04-0.38,1.78-0.38h1.45v1.8h-1.58
				c-0.89,0-1.6,0.25-2.14,0.74c-0.54,0.49-0.81,1.26-0.81,2.29v7.47H313.46z"/>
			<path class="st1" d="M328.55,157.21c-1.19,0-2.25-0.25-3.2-0.76c-0.94-0.51-1.69-1.24-2.23-2.19s-0.81-2.08-0.81-3.38v-0.28
				c0-1.32,0.27-2.45,0.81-3.4c0.54-0.94,1.29-1.67,2.23-2.18c0.94-0.51,2.01-0.76,3.2-0.76c1.17,0,2.17,0.22,3,0.65
				c0.83,0.43,1.48,1.01,1.96,1.73c0.48,0.72,0.78,1.49,0.92,2.31l-1.93,0.4c-0.08-0.6-0.28-1.15-0.59-1.65
				c-0.31-0.5-0.74-0.9-1.29-1.2s-1.23-0.45-2.03-0.45c-0.82,0-1.55,0.18-2.19,0.55s-1.15,0.89-1.53,1.58
				c-0.38,0.69-0.56,1.5-0.56,2.46v0.23c0,0.95,0.19,1.77,0.56,2.46c0.38,0.69,0.89,1.21,1.53,1.58s1.38,0.55,2.19,0.55
				c1.22,0,2.15-0.32,2.8-0.95c0.64-0.63,1.04-1.42,1.19-2.36l1.96,0.43c-0.18,0.8-0.52,1.56-1,2.28c-0.49,0.72-1.14,1.3-1.97,1.73
				C330.72,156.99,329.72,157.21,328.55,157.21z"/>
			<path class="st1" d="M343.52,157.21c-1.24,0-2.32-0.26-3.26-0.79c-0.94-0.53-1.66-1.27-2.18-2.22c-0.52-0.95-0.78-2.06-0.78-3.31
				v-0.3c0-1.27,0.26-2.38,0.78-3.33c0.52-0.95,1.24-1.69,2.16-2.22s1.97-0.79,3.16-0.79c1.15,0,2.17,0.25,3.06,0.74
				c0.89,0.49,1.58,1.2,2.08,2.12c0.5,0.92,0.75,2,0.75,3.23v0.9h-10c0.05,1.32,0.48,2.35,1.28,3.1c0.8,0.74,1.8,1.12,3.01,1.12
				c1.05,0,1.86-0.24,2.43-0.73c0.57-0.48,1-1.06,1.3-1.73l1.71,0.83c-0.25,0.52-0.6,1.04-1.04,1.55c-0.44,0.52-1.02,0.95-1.73,1.3
				C345.53,157.03,344.62,157.21,343.52,157.21z M339.31,149.61h7.97c-0.07-1.14-0.46-2.02-1.17-2.66
				c-0.71-0.64-1.62-0.95-2.72-0.95c-1.12,0-2.04,0.32-2.76,0.95S339.48,148.48,339.31,149.61z"/>
			<path class="st1" d="M357.69,157.21c-1.52,0-2.8-0.35-3.85-1.05c-1.04-0.7-1.68-1.81-1.89-3.33l1.88-0.43
				c0.13,0.8,0.38,1.43,0.75,1.89c0.37,0.46,0.82,0.79,1.37,0.98c0.54,0.19,1.12,0.29,1.74,0.29c0.92,0,1.65-0.18,2.18-0.55
				s0.8-0.86,0.8-1.48c0-0.63-0.25-1.08-0.76-1.34s-1.21-0.47-2.09-0.64l-1.03-0.18c-0.79-0.13-1.5-0.34-2.16-0.63
				c-0.65-0.28-1.17-0.67-1.55-1.15c-0.38-0.48-0.58-1.09-0.58-1.83c0-1.1,0.43-1.96,1.28-2.58c0.85-0.62,1.98-0.93,3.38-0.93
				c1.39,0,2.51,0.31,3.37,0.94c0.86,0.63,1.42,1.51,1.67,2.65l-1.86,0.48c-0.15-0.89-0.51-1.51-1.08-1.87
				c-0.57-0.36-1.27-0.54-2.11-0.54c-0.84,0-1.5,0.15-1.98,0.46c-0.49,0.31-0.73,0.76-0.73,1.37c0,0.59,0.23,1.02,0.69,1.29
				c0.46,0.28,1.07,0.48,1.84,0.61l1.03,0.18c0.87,0.15,1.65,0.35,2.34,0.61s1.25,0.63,1.65,1.12c0.41,0.49,0.61,1.12,0.61,1.91
				c0,1.2-0.45,2.13-1.34,2.78C360.39,156.88,359.19,157.21,357.69,157.21z"/>
		</g>
	</g>
</g>
</svg>
